<?xml version="1.0" encoding="utf-8"?>
<svg id="BSL" image-rendering="auto" baseProfile="basic" version="1.1" x="0px" y="0px" width="550" height="400" xmlns="http://www.w3.org/2000/svg" xmlns:xlink="http://www.w3.org/1999/xlink">
  <g id="Scene-1" overflow="visible">
    <g id="Symbol-1" transform="matrix(.3 0 0 .3 275.5 200.5)">
      <animateTransform attributeName="transform" additive="replace" type="translate" repeatCount="indefinite" dur="0.8s" keyTimes="0;.34;.47;.91;1" values="275.5,200.5;275.5,200.6;275.6,200.6;275.5,200.5;275.5,200.5"/>
      <animateTransform attributeName="transform" additive="sum" type="rotate" repeatCount="indefinite" dur="0.8s" keyTimes="0;.34;.47;.91;1" values="0,0,0;132.1,0,0;180,0,0;360,0,0;360,0,0"/>
      <animateTransform attributeName="transform" additive="sum" type="scale" repeatCount="indefinite" dur="0.8s" keyTimes="0;.34;.47;1" values=".3,.3;.4,.4;.3,.3;.3,.3"/>
      <animateTransform attributeName="transform" additive="sum" type="translate" repeatCount="indefinite" dur="0.8s" keyTimes="0;.34;.47;.91;1" values="-.2,-.2;-.1,.45;.2,.35;-.6,-.35;-.6,-.35"/>
      <g>
        <g>
          <g transform="matrix(3.6 0 0 3.6 0 0)">
            <g id="Layer1_0_FILL">
              <path fill="#E0A246" stroke="none" d="M16 -63.6Q31.2 -63.6 45.1 -58.1 58.8 -52.6 68 -42.3 63 -49 57.4 -56.5 44.8 -69.1 28.8 -76.1 13.3 -82.6 -2.5 -82.6 -29 -82.6 -46.2 -65.4 -61.1 -50.5 -63.1 -27.7 -65.0 -5.1 -53.5 16.5 -55.6 8 -55.6 1 -55.6 -25.8 -34.6 -44.6 -13.7 -63.6 16 -63.6Z"/>
            </g>
          </g>
          <g transform="matrix(3.6 0 0 3.6 0 0)">
            <g id="Layer2_0_FILL">
              <path fill="#E0A246" stroke="none" d="M-70.2 -39.1Q-74.3 -31.1 -76.8 -21.8 -80 -6.6 -79.8 8 -78.5 24.1 -72.3 37.5 -66.1 50.8 -55.8 59.7 -45.5 68.7 -32.5 72.1 -12.1 77.6 8.5 68.0 28 58.4 41 37.6 36.2 43.3 29.5 47.2 18.3 53.6 5.3 54 -7.6 56.1 -20.4 51 -47.4 43 -62.2 17.4 -69.8 4.2 -71.8 -10.5 -73 -25.2 -70.2 -39.1Z"/>
            </g>
          </g>
          <g transform="matrix(3.6 0 0 3.6 0 0)">
            <g id="Layer3_0_FILL">
              <path fill="#E0A246" stroke="none" d="M78.5 -7Q73.0 -28.3 54.5 -41.3 35 -54.2 11.3 -55.1 19.2 -53 25 -49.1 49.0 -35.8 54 -8.0 60.7 19.5 46 45.1 38.4 58.4 26.6 67.6 14 76.7 1 80.4 9.7 79 19.2 77.4 51 68 68.4 43.8 85.8 18 78.5 -7Z"/>
            </g>
          </g>
        </g>
        <g transform="matrix(3.6 0 0 3.6 0 0)">
          <g id="Layer4_0_FILL">
            <path fill="#E0A246" stroke="none" d="M7.4 -8.4Q4.4 -11.6 0 -11.6 -4.4 -11.6 -7.6 -8.4 -10.6 -5.4 -10.6 -1 -10.6 3.5 -7.6 6.5 -4.4 9.7 0 9.7 4.4 9.7 7.4 6.5 10.6 3.5 10.6 -1 10.6 -5.4 7.4 -8.4Z"/>
          </g>
        </g>
        <g transform="matrix(3.6 0 0 3.6 0 0)">
          <g id="Layer5_0_FILL">
            <path fill="#E0A246" stroke="none" d="M19.7 -105.7Q18.1 -100.4 14.2 -100.4L-14.2 -100.4Q-16.2 -100.4 -17.8 -102.2 -19.4 -103.6 -19 -105.7 -57.2 -98.6 -81.7 -69.3 -106.6 -39.6 -106.6 -1 -106.6 17.7 -100.8 34.3 -95.4 33.2 -93.3 36.6L-79.1 61.1Q-78.2 62 -78 65.2 -79.4 67.1 -80 68.6 -65 86 -45.1 95.8 -23.8 105.7 0 105.7 23.6 105.7 45.1 95.8 65.7 86 80.7 68.6 76 64.8 78 61.1L93.1 36.6Q95.1 33.0 100.6 34.3 106.6 17.2 106.6 -1 106.6 -39.6 81.7 -69.3 57.0 -98.6 19.7 -105.7M0 -91.5Q37.5 -91.5 63 -65.0 90.6 -38.4 90.6 -1 90.6 36.6 63 63.2 37.5 89.7 0 89.7 -37.5 89.7 -64.1 63.2 -90.6 36.8 -90.6 -1 -90.6 -38.4 -64.1 -65.0 -37.5 -91.5 0 -91.5Z"/>
          </g>
        </g>
      </g>
    </g>
  </g>
</svg>